{"title":"THE BELLES OF ST TRINIANS[1954]-H264 RIP BY KIDZCORNER","uid":4992591,"size":838733315,"categoryP":"video","categoryS":"handheld","magnet":"?xt=urn:btih:d5e286a30a85628dea8963c75487719007880c56&amp;dn=THE+BELLES+OF+ST+TRINIANS%5B1954%5D-H264+RIP+BY+KIDZCORNER&amp;tr=udp%3A%2F%2Ftracker.openbittorrent.com%3A80&amp;tr=udp%3A%2F%2Fopen.demonii.com%3A1337&amp;tr=udp%3A%2F%2Ftracker.coppersurfer.tk%3A6969&amp;tr=udp%3A%2F%2Fexodus.desync.com%3A6969","seeders":3,"leechers":0,"uploader":"alanwatson","files":-1,"time":1247120483,"description":"The Belles Of St Trinians is the first in the series of films based on the cartoon creations of Ronald Searle.\n\nThe arrival of Sultan's daughter Princess Fatima at England's famous and prestigious 'School for Young Ladies' precipitates even more chaos than usual. Her father's horse Arab Boy is due to run at the nearby Gold Cup so Clarence Fitton, bookie brother of headmistress Millicent, ensures his own daughter is on hand to report progress. At the same time Barchester police have planted sergeant Ruby Gates as a teacher, and the Ministry of Education are sending a third inspector down after the previous two disappeared without trace.\n\nFormat : MPEG-4\nFormat profile : Base Media / Version 2\nCodec ID : mp42\nFile size : 799 MiB\nDuration : 1h 26mn\nOverall bit rate : 1 287 Kbps\nEncoded date : UTC 2009-07-08 03:18:05\nTagged date : UTC 2009-07-08 07:33:20\nWriting application : HandBrake 0.9.3 2008112300\n\nVideo\nID : 1\nFormat : AVC\nFormat/Info : Advanced Video Codec\nFormat profile : &lt;a class=&quot;__cf_email__&quot; href=&quot;/cdn-cgi/l/email-protection&quot; data-cfemail=&quot;b9f4d8d0d7f9f58d9789&quot;&gt;[email&amp;#160;protected]&lt;/a&gt;&lt;script cf-hash='f9e31' type=&quot;text/javascript&quot;&gt;\n/* &lt;![CDATA[ */!function(){try{var t=&quot;currentScript&quot;in document?document.currentScript:function(){for(var t=document.getElementsByTagName(&quot;script&quot;),e=t.length;e--;)if(t[e].getAttribute(&quot;cf-hash&quot;))return t[e]}();if(t&amp;&amp;t.previousSibling){var e,r,n,i,c=t.previousSibling,a=c.getAttribute(&quot;data-cfemail&quot;);if(a){for(e=&quot;&quot;,r=parseInt(a.substr(0,2),16),n=2;a.length-n;n+=2)i=parseInt(a.substr(n,2),16)^r,e+=String.fromCharCode(i);e=document.createTextNode(e),c.parentNode.replaceChild(e,c)}}}catch(u){}}();/* ]]&gt; */&lt;/script&gt;\nFormat settings, CABAC : Yes\nFormat settings, ReFrames : 3 frames\nCodec ID : avc1\nCodec ID/Info : Advanced Video Coding\nDuration : 1h 26mn\nBit rate mode : Variable\nBit rate : 1 123 Kbps\nWidth : 702 pixels\nHeight : 576 pixels\nDisplay aspect ratio : 1.300\nFrame rate mode : Variable\nFrame rate : 25.000 fps\nMinimum frame rate : 12.500 fps\nMaximum frame rate : 25.000 fps\nResolution : 24 bits\nColorimetry : 4:2:0\nScan type : Progressive\nBits/(Pixel*Frame) : 0.111\nStream size : 698 MiB (87%)\nWriting library : x264 core 65\nAudio\nID : 2\nFormat : AAC\nFormat/Info : Advanced Audio Codec\nFormat version : Version 4\nFormat profile : LC\nFormat settings, SBR : No\nCodec ID : 40\nDuration : 1h 26mn\nBit rate mode : Variable\nBit rate : 160 Kbps\nMaximum bit rate : 191 Kbps\nChannel(s) : 2 channels\nChannel positions : L R\nSampling rate : 48.0 KHz\nResolution : 16 bits\nStream size : 99.4 MiB (12%)\nLanguage : English\nEncoded date : UTC 2009-07-08 03:18:05\nTagged date : UTC 2009-07-08 07:33:12","torrent":{"xt":"urn:btih:d5e286a30a85628dea8963c75487719007880c56","amp;dn":"THE+BELLES+OF+ST+TRINIANS%5B1954%5D-H264+RIP+BY+KIDZCORNER","amp;tr":["udp%3A%2F%2Ftracker.openbittorrent.com%3A80","udp%3A%2F%2Fopen.demonii.com%3A1337","udp%3A%2F%2Ftracker.coppersurfer.tk%3A6969","udp%3A%2F%2Fexodus.desync.com%3A6969"],"infoHash":"d5e286a30a85628dea8963c75487719007880c56","infoHashBuffer":{"type":"Buffer","data":[213,226,134,163,10,133,98,141,234,137,99,199,84,135,113,144,7,136,12,86]},"announce":[],"urlList":[]}}